<svg width="206" height="220" viewBox="0 0 206 220" fill="none" xmlns="http://www.w3.org/2000/svg">
<ellipse cx="102.741" cy="100.859" rx="102.5" ry="94.4621" transform="rotate(179.863 102.741 100.859)" fill="#785D53"/>
<path d="M114.999 148.643C109.067 157.388 96.1904 157.417 90.2131 148.697L47.9815 87.0914C41.1661 77.1493 48.2619 63.6401 60.3134 63.6136L144.455 63.4286C156.507 63.4021 163.673 76.8798 156.909 86.8518L114.999 148.643Z" fill="white"/>
<path d="M115.137 201.506C109.205 210.252 96.3282 210.28 90.3509 201.561L48.1193 139.955C41.3039 130.013 48.3997 116.503 60.4512 116.477L144.593 116.292C156.644 116.265 163.811 129.743 157.047 139.715L115.137 201.506Z" fill="white"/>
<rect width="36.893" height="84.9021" transform="matrix(-0.999998 0.0021996 -0.00260582 -0.999997 122.414 85.1072)" fill="white"/>
<ellipse cx="21.0421" cy="19.3326" rx="21.0421" ry="19.3326" transform="matrix(-0.999998 0.0021996 -0.00260582 -0.999997 124.126 150.871)" fill="#785D53"/>
</svg>
